<svg width="412" height="76" viewBox="0 0 412 76" fill="none" xmlns="http://www.w3.org/2000/svg">
<path d="M85.3917 32.7217H100.261C106.857 32.7217 111.966 34.4945 115.588 38.0402C119.248 41.5478 121.078 46.4852 121.078 52.8522C121.078 59.2193 119.248 64.1757 115.588 67.7214C111.966 71.2671 106.857 73.04 100.261 73.04H85.3917V32.7217ZM99.8033 67.0351C109.068 67.0351 113.7 62.3075 113.7 52.8522C113.7 43.4351 109.068 38.7265 99.8033 38.7265H92.7691V67.0351H99.8033Z" fill="#4299E1"/>
<path d="M154.266 63.6038H134.65L130.59 73.04H123.155L141.399 32.7217H147.403L165.647 73.04H158.327L154.266 63.6038ZM151.807 57.8849L144.43 40.7281L137.052 57.8849H151.807Z" fill="#4299E1"/>
<path d="M183.168 73.5547C180.08 73.5547 177.182 73.1353 174.475 72.2965C171.768 71.4578 169.481 70.2759 167.613 68.7508L170.072 63.375C172.016 64.8619 174.056 65.9485 176.191 66.6348C178.364 67.3211 180.709 67.6642 183.225 67.6642C186.009 67.6642 188.144 67.1876 189.63 66.2345C191.156 65.2432 191.918 63.8707 191.918 62.1169C191.918 60.5918 191.213 59.429 189.802 58.6283C188.43 57.8277 186.123 57.0652 182.882 56.3408C179.527 55.6164 176.801 54.7776 174.704 53.8244C172.607 52.8713 171.025 51.6513 169.957 50.1643C168.89 48.6774 168.356 46.7902 168.356 44.5026C168.356 42.1388 169.004 40.0228 170.301 38.1546C171.597 36.2864 173.427 34.8376 175.791 33.8082C178.155 32.7407 180.881 32.2069 183.969 32.2069C186.79 32.2069 189.478 32.6454 192.032 33.5223C194.587 34.3611 196.684 35.5239 198.323 37.0108L195.864 42.3866C192.28 39.5272 188.315 38.0974 183.969 38.0974C181.376 38.0974 179.317 38.6312 177.792 39.6987C176.305 40.7281 175.562 42.1769 175.562 44.0451C175.562 45.6083 176.229 46.8092 177.564 47.648C178.898 48.4868 181.166 49.2684 184.369 49.9928C187.762 50.7553 190.507 51.6131 192.604 52.5663C194.739 53.4813 196.36 54.6632 197.465 56.112C198.609 57.5608 199.181 59.3908 199.181 61.6022C199.181 64.0041 198.533 66.1201 197.237 67.9502C195.978 69.7421 194.129 71.1337 191.689 72.125C189.287 73.0781 186.447 73.5547 183.168 73.5547Z" fill="#4299E1"/>
<path d="M241.083 32.7217V73.04H233.877V55.5401H213.232V73.04H205.969V32.7217H213.232V49.5924H233.877V32.7217H241.083Z" fill="#4299E1"/>
<path d="M249.755 32.7217H264.624C271.22 32.7217 276.328 34.4945 279.95 38.0402C283.611 41.5478 285.441 46.4852 285.441 52.8522C285.441 59.2193 283.611 64.1757 279.95 67.7214C276.328 71.2671 271.22 73.04 264.624 73.04H249.755V32.7217ZM264.166 67.0351C273.431 67.0351 278.063 62.3075 278.063 52.8522C278.063 43.4351 273.431 38.7265 264.166 38.7265H257.132V67.0351H264.166Z" fill="#4299E1"/>
<path d="M292.87 32.7217H319.863V38.5549H300.076V49.6496H318.719V55.4257H300.076V67.2067H319.863V73.04H292.87V32.7217Z" fill="#4299E1"/>
<path d="M365.893 32.7217V73.04H359.373V46.3899L348.736 66.5204H343.818L333.123 46.6758L333.181 73.04H326.661V32.7217H332.494L346.334 59.0858L360.117 32.7217H365.893Z" fill="#4299E1"/>
<path d="M392.59 73.5547C388.663 73.5547 385.251 72.7159 382.353 71.0384C379.493 69.3608 377.282 66.9589 375.719 63.8325C374.156 60.7062 373.374 57.0461 373.374 52.8522C373.374 48.6584 374.137 45.0173 375.662 41.9291C377.225 38.8028 379.455 36.4008 382.353 34.7233C385.251 33.0457 388.663 32.2069 392.59 32.2069C396.517 32.2069 399.91 33.0457 402.769 34.7233C405.667 36.4008 407.878 38.8028 409.403 41.9291C410.967 45.0173 411.748 48.6584 411.748 52.8522C411.748 57.0461 410.967 60.7062 409.403 63.8325C407.84 66.9589 405.61 69.3608 402.712 71.0384C399.853 72.7159 396.479 73.5547 392.59 73.5547ZM392.59 67.6642C396.288 67.6642 399.167 66.387 401.225 63.8325C403.322 61.2781 404.371 57.618 404.371 52.8522C404.371 48.0865 403.322 44.4454 401.225 41.9291C399.167 39.3747 396.288 38.0974 392.59 38.0974C388.853 38.0974 385.937 39.3747 383.84 41.9291C381.781 44.4454 380.752 48.0865 380.752 52.8522C380.752 57.618 381.781 61.2781 383.84 63.8325C385.937 66.387 388.853 67.6642 392.59 67.6642Z" fill="#4299E1"/>
<path d="M0 37.6H11.28V75.2H0V37.6ZM18.8 0H30.08V75.2H18.8V0ZM37.6 30.08H48.88V75.2H37.6V30.08ZM56.4 15.04H67.68V75.2H56.4V15.04Z" fill="#ECC94B"/>
</svg>
